<svg width="399" height="102" viewBox="0 0 399 102" fill="none" xmlns="http://www.w3.org/2000/svg">
<g filter="url(#filter0_d_166_794)">
<path d="M53.9004 47.8517C53.9004 61.2517 42.4704 72.1917 28.4804 72.1917C20.1004 72.1917 12.2204 68.1516 7.49036 61.5516C6.50036 60.1716 6.80036 58.3016 8.18036 57.3116C9.56036 56.4216 11.4304 56.7217 12.4204 58.1017C15.9704 63.1217 21.9804 66.1816 28.4804 66.1816C39.0204 66.1816 47.5904 58.2017 47.7904 48.3517H8.28036C4.73036 48.3517 4.83036 45.6916 4.83036 44.7016C4.83036 38.3016 12.4204 22.9316 29.3604 22.9316C34.3804 22.9316 39.2104 24.4116 43.3504 27.2716C44.8304 28.3516 45.2204 30.3216 44.2404 31.8016C43.2504 33.2816 41.1904 33.6716 39.7104 32.5916C36.6604 30.5216 33.1104 29.4417 29.3604 29.4417C21.1804 29.4417 14.1904 34.7617 11.8204 42.3517H50.7404C52.4204 42.3517 53.7904 43.6316 53.7904 45.2116L53.9004 47.8517Z" fill="url(#paint0_linear_166_794)"/>
<path d="M58.2402 47.5616C58.2402 33.9616 69.2802 22.9316 82.8702 22.9316C96.4702 22.9316 107.5 33.9716 107.5 47.5616C107.5 61.1616 96.4602 72.1917 82.8702 72.1917C75.6802 72.1917 69.1802 69.0416 64.6402 64.1116V90.3217C64.6402 92.0917 63.1602 93.5717 61.3902 93.5717C59.6202 93.5717 58.2402 92.0917 58.2402 90.3217V47.5616ZM101 47.5616C101 37.5116 92.9202 29.3316 82.8702 29.3316C72.8202 29.3316 64.6402 37.5116 64.6402 47.5616C64.6402 57.6116 72.8202 65.7917 82.8702 65.7917C92.9202 65.7817 101 57.6116 101 47.5616Z" fill="url(#paint1_linear_166_794)"/>
<path d="M136.471 72.1917C122.871 72.1917 111.841 61.1516 111.841 47.5616C111.841 33.9616 122.881 22.9316 136.471 22.9316C150.071 22.9316 161.101 33.9716 161.101 47.5616V69.0417C161.101 70.8117 159.721 72.1917 157.951 72.1917C156.181 72.1917 154.701 70.8117 154.701 69.0417V47.5616C154.701 37.5116 146.521 29.3316 136.471 29.3316C126.421 29.3316 118.241 37.5116 118.241 47.5616C118.241 57.6116 126.421 65.7917 136.471 65.7917C140.711 65.7917 144.651 64.4117 147.901 61.8517C149.281 60.6717 151.251 60.9616 152.431 62.3416C153.511 63.7216 153.321 65.6916 151.941 66.7716C147.501 70.3216 142.081 72.1917 136.471 72.1917Z" fill="url(#paint2_linear_166_794)"/>
<path d="M168.69 72.1917C166.92 72.1917 165.44 70.7117 165.44 68.9417V47.5616C165.44 33.9616 176.48 22.9316 190.07 22.9316C197.16 22.9316 203.96 25.9816 208.59 31.3116C209.77 32.6916 209.67 34.6616 208.29 35.8416C207.01 37.0216 204.94 36.9217 203.76 35.5417C200.31 31.6017 195.29 29.3316 190.06 29.3316C180.01 29.3316 171.83 37.5116 171.83 47.5616V68.9417C171.84 70.7117 170.46 72.1917 168.69 72.1917Z" fill="url(#paint3_linear_166_794)"/>
<path d="M259.04 71.4016C258.45 71.8916 257.76 72.1917 256.97 72.1917C255.98 72.1917 255.1 71.8017 254.51 71.0117L232.44 45.3916L215.99 58.2016C215.4 58.6916 214.81 58.8916 214.12 58.8916C213.23 58.8916 212.35 58.5016 211.76 57.7116C211.27 57.1216 211.07 56.6316 211.07 55.9417V4.81165C211.07 2.94165 212.55 1.56165 214.32 1.56165C216.09 1.56165 217.57 2.94165 217.57 4.81165V49.4417L250.97 23.5316C252.25 22.5416 254.22 22.8416 255.01 24.1216C256.09 25.4016 255.9 27.1717 254.62 28.2617L237.58 41.6617L259.45 66.9816C260.61 68.2516 260.42 70.4116 259.04 71.4016Z" fill="url(#paint4_linear_166_794)"/>
<path d="M286.721 72.1917C273.121 72.1917 262.091 61.1516 262.091 47.5616V4.80164C262.091 3.03164 263.571 1.55164 265.341 1.55164C267.111 1.55164 268.491 3.03164 268.491 4.80164V47.5616C268.491 57.6116 276.671 65.7917 286.721 65.7917C288.491 65.7917 289.971 67.1717 289.971 68.9417C289.971 70.7116 288.501 72.1917 286.721 72.1917Z" fill="url(#paint5_linear_166_794)"/>
<path d="M316.771 72.1917C303.171 72.1917 292.141 61.1516 292.141 47.5616C292.141 33.9616 303.171 22.9316 316.771 22.9316C330.371 22.9316 341.401 33.9716 341.401 47.5616V69.0417C341.401 70.8117 340.021 72.1917 338.251 72.1917C336.481 72.1917 335.001 70.8117 335.001 69.0417V47.5616C335.001 37.5116 326.821 29.3316 316.771 29.3316C306.721 29.3316 298.541 37.5116 298.541 47.5616C298.541 57.6116 306.721 65.7917 316.771 65.7917C321.011 65.7917 324.951 64.4117 328.201 61.8517C329.581 60.6717 331.551 60.9616 332.731 62.3416C333.811 63.7216 333.621 65.6916 332.241 66.7716C327.811 70.3216 322.391 72.1917 316.771 72.1917Z" fill="url(#paint6_linear_166_794)"/>
<path d="M345.74 4.80164C345.74 3.03164 347.22 1.55164 348.99 1.55164C350.76 1.55164 352.24 3.03164 352.24 4.80164V31.0117C356.67 26.0817 363.18 22.9316 370.37 22.9316C383.87 22.9316 394.9 33.9717 394.9 47.6617C394.9 61.1617 383.86 72.1917 370.37 72.1917C356.77 72.1917 345.74 61.1516 345.74 47.6617V4.80164ZM388.5 47.6516C388.5 37.6016 380.32 29.3217 370.37 29.3217C360.32 29.3217 352.24 37.6016 352.24 47.6516C352.24 57.6016 360.32 65.7816 370.37 65.7816C380.32 65.7816 388.5 57.6116 388.5 47.6516Z" fill="url(#paint7_linear_166_794)"/>
</g>
<path d="M7 15.9592V0.129913H9.73592L15.9813 9.44508C16.0627 9.58351 16.1686 9.76263 16.307 9.99062C16.4373 10.2186 16.5513 10.4303 16.6409 10.6176C16.6164 10.4548 16.6002 10.2512 16.592 10.015C16.5839 9.77891 16.5757 9.58351 16.5757 9.44508V0.129913H19.4908V15.9592H16.877L10.5013 6.57073C10.4199 6.44045 10.314 6.2613 10.1756 6.02517C10.0453 5.78903 9.93134 5.57732 9.84178 5.39004C9.8662 5.57732 9.88249 5.78089 9.89063 6.00074C9.89877 6.22059 9.89877 6.40787 9.89877 6.56258V15.951H7V15.9592Z" fill="white"/>
<path d="M30.5158 16.2278L26.469 7.4093C26.4201 7.29531 26.3631 7.16503 26.298 7.01032C26.241 6.85561 26.184 6.70902 26.1432 6.55431C26.1514 6.67645 26.1595 6.8149 26.1595 6.9859C26.1595 7.14875 26.1677 7.2953 26.1677 7.42558V15.9509H23.2363V0.121643H26.1677L30.182 9.10296C30.2553 9.26581 30.3286 9.43681 30.3937 9.59152C30.4588 9.75437 30.5158 9.92537 30.581 10.0964C30.638 9.92537 30.7031 9.75437 30.7601 9.59152C30.8171 9.42867 30.8823 9.26581 30.9555 9.10296L35.0513 0.121643H37.7953V15.9509H34.864V7.40115C34.864 7.26273 34.864 7.11616 34.8721 6.94517C34.8721 6.78232 34.8803 6.64389 34.8803 6.53804C34.8314 6.67646 34.7826 6.81489 34.7174 6.9696C34.6523 7.12431 34.5953 7.26275 34.5302 7.39303L30.5158 16.2278Z" fill="white"/>
<path d="M41.541 15.9591V0.129791H44.4724V15.9591H41.541Z" fill="white"/>
<path d="M51.679 15.9591V2.94713H47.1924V0.129791H59.1213V2.94713H54.6103V15.9591H51.679Z" fill="white"/>
<path d="M339 99.2196C339 98.0552 339.138 97.0374 339.415 96.158C339.692 95.2786 340.083 94.505 340.572 93.8373C341.06 93.1696 341.63 92.5752 342.273 92.0623C342.917 91.5493 343.601 91.0933 344.325 90.6862C344.757 90.4419 345.156 90.1894 345.539 89.9207C345.913 89.652 346.223 89.3426 346.45 89.0088C346.687 88.6668 346.801 88.2759 346.801 87.8362C346.801 87.2418 346.605 86.7696 346.206 86.4194C345.807 86.0693 345.278 85.8902 344.618 85.8902C343.926 85.8902 343.356 86.053 342.908 86.3787C342.461 86.7044 342.11 87.1604 341.866 87.7385L339.252 86.5497C339.676 85.5075 340.368 84.6769 341.337 84.0581C342.306 83.4392 343.389 83.1216 344.586 83.1216C345.669 83.1216 346.597 83.3252 347.362 83.7405C348.128 84.1476 348.714 84.7095 349.113 85.4016C349.52 86.1019 349.716 86.8835 349.716 87.7548C349.716 88.6749 349.553 89.4403 349.227 90.0592C348.901 90.678 348.454 91.2154 347.892 91.6633C347.33 92.1193 346.703 92.5427 346.011 92.9498C345.327 93.3569 344.741 93.7315 344.268 94.0735C343.788 94.4155 343.397 94.7738 343.096 95.1402C342.794 95.5066 342.566 95.9219 342.42 96.4023H349.862V99.2196H339Z" fill="white"/>
<path d="M358.811 99.4965C357.679 99.4965 356.742 99.2603 355.993 98.7799C355.244 98.2995 354.658 97.6644 354.218 96.8664C353.778 96.0684 353.469 95.189 353.282 94.22C353.094 93.2511 353.005 92.2821 353.005 91.3131C353.005 90.5477 353.062 89.766 353.176 88.9925C353.29 88.2189 353.477 87.4698 353.738 86.7695C353.998 86.0693 354.348 85.4423 354.796 84.8968C355.244 84.3512 355.79 83.9196 356.449 83.6021C357.109 83.2845 357.89 83.1298 358.802 83.1298C359.926 83.1298 360.862 83.3659 361.612 83.8463C362.361 84.3268 362.955 84.9537 363.387 85.7436C363.818 86.5334 364.128 87.4128 364.315 88.3818C364.502 89.3508 364.592 90.3279 364.592 91.3131C364.592 92.0786 364.535 92.8521 364.421 93.6338C364.307 94.4073 364.12 95.1483 363.859 95.8486C363.598 96.5489 363.24 97.1758 362.792 97.7295C362.344 98.2832 361.799 98.7148 361.139 99.0323C360.48 99.3499 359.714 99.4965 358.811 99.4965ZM358.811 96.7361C359.372 96.7361 359.828 96.5814 360.195 96.2638C360.561 95.9544 360.854 95.531 361.066 95.0099C361.278 94.4888 361.432 93.9106 361.522 93.2674C361.612 92.6241 361.66 91.9727 361.66 91.2968C361.66 90.621 361.612 89.9615 361.522 89.3182C361.424 88.6749 361.278 88.0968 361.066 87.5675C360.854 87.0383 360.569 86.6311 360.203 86.3217C359.837 86.0123 359.372 85.8657 358.819 85.8657C358.257 85.8657 357.785 86.0204 357.418 86.3298C357.052 86.6393 356.759 87.0545 356.539 87.5757C356.319 88.0968 356.164 88.6831 356.075 89.3263C355.985 89.9696 355.936 90.621 355.936 91.2968C355.936 91.9645 355.985 92.6241 356.075 93.2674C356.164 93.9106 356.319 94.4969 356.539 95.018C356.759 95.5392 357.052 95.9544 357.426 96.2638C357.785 96.5814 358.249 96.7361 358.811 96.7361Z" fill="white"/>
<path d="M367.694 99.2196C367.694 98.0552 367.833 97.0374 368.11 96.158C368.386 95.2786 368.777 94.505 369.266 93.8373C369.754 93.1696 370.324 92.5752 370.968 92.0623C371.611 91.5493 372.295 91.0933 373.02 90.6862C373.451 90.4419 373.85 90.1894 374.233 89.9207C374.607 89.652 374.917 89.3426 375.145 89.0088C375.381 88.6668 375.495 88.2759 375.495 87.8362C375.495 87.2418 375.3 86.7696 374.901 86.4194C374.502 86.0693 373.972 85.8902 373.313 85.8902C372.621 85.8902 372.051 86.053 371.603 86.3787C371.155 86.7044 370.805 87.1604 370.561 87.7385L367.947 86.5497C368.37 85.5075 369.062 84.6769 370.031 84.0581C371 83.4392 372.083 83.1216 373.28 83.1216C374.363 83.1216 375.291 83.3252 376.057 83.7405C376.822 84.1476 377.409 84.7095 377.807 85.4016C378.215 86.1019 378.41 86.8835 378.41 87.7548C378.41 88.6749 378.247 89.4403 377.921 90.0592C377.596 90.678 377.148 91.2154 376.586 91.6633C376.024 92.1193 375.397 92.5427 374.705 92.9498C374.021 93.3569 373.435 93.7315 372.963 94.0735C372.482 94.4155 372.091 94.7738 371.79 95.1402C371.489 95.5066 371.261 95.9219 371.114 96.4023H378.557V99.2196H367.694Z" fill="white"/>
<path d="M386.43 99.4965C385.632 99.4965 384.908 99.415 384.272 99.2522C383.629 99.0893 383.075 98.8858 382.595 98.6333C382.123 98.3809 381.732 98.1285 381.431 97.8679L383.002 95.5717C383.271 95.7753 383.58 95.9626 383.914 96.1417C384.248 96.3208 384.623 96.4674 385.03 96.5814C385.437 96.6954 385.901 96.7524 386.414 96.7524C387.025 96.7524 387.562 96.6384 388.026 96.4104C388.49 96.1824 388.857 95.8649 389.117 95.4496C389.378 95.0343 389.516 94.5457 389.516 93.9758C389.516 93.4872 389.427 93.0557 389.239 92.6811C389.052 92.3065 388.792 92.0134 388.45 91.8017C388.108 91.59 387.684 91.476 387.188 91.476C386.561 91.476 386.039 91.59 385.616 91.8098C385.193 92.0297 384.826 92.3228 384.517 92.6729L381.919 91.419L382.465 83.3904H391.446V86.1833H385.136L384.851 89.3019C385.209 89.1228 385.592 88.9762 385.991 88.8703C386.39 88.7645 386.813 88.7075 387.269 88.7075C388.376 88.7075 389.321 88.9436 390.086 89.4077C390.86 89.8719 391.446 90.507 391.853 91.2968C392.26 92.0867 392.456 92.9742 392.456 93.9432C392.456 95.0424 392.195 96.0114 391.682 96.842C391.169 97.6725 390.453 98.3239 389.549 98.7962C388.645 99.2603 387.603 99.4965 386.43 99.4965Z" fill="white"/>
<defs>
<filter id="filter0_d_166_794" x="0.830078" y="1.55164" width="398.07" height="100.02" filterUnits="userSpaceOnUse" color-interpolation-filters="sRGB">
<feFlood flood-opacity="0" result="BackgroundImageFix"/>
<feColorMatrix in="SourceAlpha" type="matrix" values="0 0 0 0 0 0 0 0 0 0 0 0 0 0 0 0 0 0 127 0" result="hardAlpha"/>
<feOffset dy="4"/>
<feGaussianBlur stdDeviation="2"/>
<feComposite in2="hardAlpha" operator="out"/>
<feColorMatrix type="matrix" values="0 0 0 0 0 0 0 0 0 0 0 0 0 0 0 0 0 0 0.25 0"/>
<feBlend mode="normal" in2="BackgroundImageFix" result="effect1_dropShadow_166_794"/>
<feBlend mode="normal" in="SourceGraphic" in2="effect1_dropShadow_166_794" result="shape"/>
</filter>
<linearGradient id="paint0_linear_166_794" x1="-9.45764" y1="41.2515" x2="699.567" y2="41.2515" gradientUnits="userSpaceOnUse">
<stop stop-color="#F6DF8A"/>
<stop offset="0.427" stop-color="#DCA95F"/>
<stop offset="0.7255" stop-color="#CC8745"/>
<stop offset="0.7987" stop-color="#D1914D"/>
<stop offset="0.9215" stop-color="#DDAB62"/>
<stop offset="1" stop-color="#E7BF73"/>
</linearGradient>
<linearGradient id="paint1_linear_166_794" x1="-9.45776" y1="41.2515" x2="699.567" y2="41.2515" gradientUnits="userSpaceOnUse">
<stop stop-color="#F6DF8A"/>
<stop offset="0.427" stop-color="#DCA95F"/>
<stop offset="0.7255" stop-color="#CC8745"/>
<stop offset="0.7987" stop-color="#D1914D"/>
<stop offset="0.9215" stop-color="#DDAB62"/>
<stop offset="1" stop-color="#E7BF73"/>
</linearGradient>
<linearGradient id="paint2_linear_166_794" x1="-9.45721" y1="41.2515" x2="699.568" y2="41.2515" gradientUnits="userSpaceOnUse">
<stop stop-color="#F6DF8A"/>
<stop offset="0.427" stop-color="#DCA95F"/>
<stop offset="0.7255" stop-color="#CC8745"/>
<stop offset="0.7987" stop-color="#D1914D"/>
<stop offset="0.9215" stop-color="#DDAB62"/>
<stop offset="1" stop-color="#E7BF73"/>
</linearGradient>
<linearGradient id="paint3_linear_166_794" x1="-9.45757" y1="41.2515" x2="699.567" y2="41.2515" gradientUnits="userSpaceOnUse">
<stop stop-color="#F6DF8A"/>
<stop offset="0.427" stop-color="#DCA95F"/>
<stop offset="0.7255" stop-color="#CC8745"/>
<stop offset="0.7987" stop-color="#D1914D"/>
<stop offset="0.9215" stop-color="#DDAB62"/>
<stop offset="1" stop-color="#E7BF73"/>
</linearGradient>
<linearGradient id="paint4_linear_166_794" x1="-9.45771" y1="41.2515" x2="699.567" y2="41.2515" gradientUnits="userSpaceOnUse">
<stop stop-color="#F6DF8A"/>
<stop offset="0.427" stop-color="#DCA95F"/>
<stop offset="0.7255" stop-color="#CC8745"/>
<stop offset="0.7987" stop-color="#D1914D"/>
<stop offset="0.9215" stop-color="#DDAB62"/>
<stop offset="1" stop-color="#E7BF73"/>
</linearGradient>
<linearGradient id="paint5_linear_166_794" x1="-9.45722" y1="41.2515" x2="699.568" y2="41.2515" gradientUnits="userSpaceOnUse">
<stop stop-color="#F6DF8A"/>
<stop offset="0.427" stop-color="#DCA95F"/>
<stop offset="0.7255" stop-color="#CC8745"/>
<stop offset="0.7987" stop-color="#D1914D"/>
<stop offset="0.9215" stop-color="#DDAB62"/>
<stop offset="1" stop-color="#E7BF73"/>
</linearGradient>
<linearGradient id="paint6_linear_166_794" x1="-9.45725" y1="41.2515" x2="699.567" y2="41.2515" gradientUnits="userSpaceOnUse">
<stop stop-color="#F6DF8A"/>
<stop offset="0.427" stop-color="#DCA95F"/>
<stop offset="0.7255" stop-color="#CC8745"/>
<stop offset="0.7987" stop-color="#D1914D"/>
<stop offset="0.9215" stop-color="#DDAB62"/>
<stop offset="1" stop-color="#E7BF73"/>
</linearGradient>
<linearGradient id="paint7_linear_166_794" x1="-9.45782" y1="41.2515" x2="699.567" y2="41.2515" gradientUnits="userSpaceOnUse">
<stop stop-color="#F6DF8A"/>
<stop offset="0.427" stop-color="#DCA95F"/>
<stop offset="0.7255" stop-color="#CC8745"/>
<stop offset="0.7987" stop-color="#D1914D"/>
<stop offset="0.9215" stop-color="#DDAB62"/>
<stop offset="1" stop-color="#E7BF73"/>
</linearGradient>
</defs>
</svg>
